<svg 
 xmlns="http://www.w3.org/2000/svg"
 xmlns:xlink="http://www.w3.org/1999/xlink"
 width="218px" height="219px">
<path fill-rule="evenodd"  opacity="0.569" fill="rgb(239, 156, 0)"
 d="M217.423,120.286 L120.288,217.421 C119.500,218.209 118.219,218.204 117.425,217.409 C116.630,216.615 116.626,215.335 117.414,214.547 L214.549,117.412 C215.338,116.624 216.618,116.628 217.412,117.423 C218.206,118.216 218.211,119.497 217.423,120.286 ZM92.532,216.162 C91.743,216.950 90.463,216.946 89.668,216.151 C88.875,215.357 88.869,214.076 89.658,213.288 L213.289,89.657 C214.077,88.868 215.358,88.874 216.152,89.668 C216.946,90.462 216.951,91.742 216.163,92.531 L92.532,216.162 ZM70.058,209.620 C69.270,210.409 67.990,210.405 67.195,209.610 C66.401,208.816 66.396,207.535 67.184,206.747 L206.747,67.184 C207.536,66.395 208.817,66.400 209.611,67.194 C210.405,67.989 210.410,69.269 209.621,70.058 L70.058,209.620 ZM51.171,199.489 C50.383,200.277 49.103,200.273 48.308,199.478 C47.514,198.685 47.510,197.404 48.298,196.616 L196.618,48.295 C197.406,47.508 198.687,47.512 199.481,48.306 C200.275,49.100 200.280,50.381 199.491,51.169 L51.171,199.489 ZM35.230,186.417 C34.441,187.205 33.161,187.200 32.367,186.406 C31.572,185.611 31.567,184.331 32.356,183.542 L183.543,32.355 C184.332,31.566 185.612,31.571 186.407,32.366 C187.201,33.160 187.206,34.440 186.418,35.229 L35.230,186.417 ZM22.024,170.604 C21.236,171.392 19.956,171.388 19.162,170.594 C18.367,169.799 18.362,168.518 19.151,167.730 L167.732,19.148 C168.521,18.360 169.802,18.364 170.596,19.159 C171.390,19.954 171.395,21.234 170.606,22.022 L22.024,170.604 ZM11.759,151.855 C10.970,152.644 9.690,152.639 8.895,151.844 C8.101,151.050 8.096,149.770 8.885,148.982 L148.983,8.882 C149.772,8.093 151.052,8.098 151.847,8.893 C152.641,9.688 152.646,10.968 151.857,11.756 L11.759,151.855 ZM5.032,129.564 C4.243,130.353 2.963,130.348 2.169,129.554 C1.374,128.759 1.369,127.479 2.158,126.691 L126.693,2.156 C127.481,1.367 128.762,1.372 129.556,2.166 C130.350,2.960 130.355,4.241 129.567,5.030 L5.032,129.564 ZM3.445,102.137 C2.656,102.925 1.376,102.920 0.581,102.126 C-0.213,101.331 -0.218,100.051 0.570,99.263 L99.263,0.569 C100.052,-0.219 101.333,-0.214 102.127,0.580 C102.921,1.375 102.926,2.655 102.138,3.443 L3.445,102.137 ZM14.171,62.396 C13.382,63.185 12.101,63.179 11.307,62.385 C10.513,61.591 10.508,60.311 11.297,59.522 L59.523,11.296 C60.312,10.507 61.592,10.512 62.386,11.306 C63.180,12.100 63.186,13.381 62.397,14.170 L14.171,62.396 ZM202.556,158.423 C203.344,157.635 204.625,157.639 205.418,158.433 C206.213,159.228 206.218,160.509 205.430,161.297 L161.299,205.427 C160.511,206.215 159.230,206.211 158.435,205.416 C157.642,204.623 157.637,203.342 158.425,202.554 L202.556,158.423 Z"/>
</svg>