<svg 
 xmlns="http://www.w3.org/2000/svg"
 xmlns:xlink="http://www.w3.org/1999/xlink"
 width="20px" height="21px">
<defs>
<linearGradient id="PSgrad_0" x1="0%" x2="0%" y1="100%" y2="0%">
  <stop offset="0%" stop-color="rgb(240,126,0)" stop-opacity="1" />
  <stop offset="99%" stop-color="rgb(240,186,0)" stop-opacity="1" />
</linearGradient>

</defs>
<path fill-rule="evenodd"  fill="rgb(255, 255, 255)"
 d="M5.832,7.916 C5.832,7.916 8.373,13.109 12.125,14.910 C14.224,13.348 13.717,13.959 14.374,13.361 C15.030,12.764 16.792,14.092 17.256,14.790 C17.720,15.490 19.517,17.258 19.383,17.903 C19.249,18.548 18.641,19.441 17.381,20.057 C16.120,20.674 12.204,20.683 9.939,19.092 C7.674,17.498 0.810,10.161 0.481,7.139 C0.153,4.117 0.976,2.511 1.902,1.429 C2.829,0.344 3.988,0.012 4.968,0.830 C5.948,1.649 7.849,3.938 7.966,4.313 C8.082,4.689 8.058,5.782 7.158,6.577 C6.258,7.370 5.709,7.613 5.832,7.916 Z"/>
<path fill="url(#PSgrad_0)"
 d="M5.832,7.916 C5.832,7.916 8.373,13.109 12.125,14.910 C14.224,13.348 13.717,13.959 14.374,13.361 C15.030,12.764 16.792,14.092 17.256,14.790 C17.720,15.490 19.517,17.258 19.383,17.903 C19.249,18.548 18.641,19.441 17.381,20.057 C16.120,20.674 12.204,20.683 9.939,19.092 C7.674,17.498 0.810,10.161 0.481,7.139 C0.153,4.117 0.976,2.511 1.902,1.429 C2.829,0.344 3.988,0.012 4.968,0.830 C5.948,1.649 7.849,3.938 7.966,4.313 C8.082,4.689 8.058,5.782 7.158,6.577 C6.258,7.370 5.709,7.613 5.832,7.916 Z"/>
</svg>
